REM MD5 a36a68372b423d5143ede480fabcfb98
FILE "SuperLite 1500 Series - Suudoku 5 (Japan).bin" BINARY
  TRACK 01 MODE2/2352
    INDEX 01 00:00:00
  TRACK 02 AUDIO
    INDEX 00 00:10:07
    INDEX 01 00:12:07
  TRACK 03 AUDIO
    INDEX 00 02:24:60
    INDEX 01 02:26:60
  TRACK 04 AUDIO
    INDEX 00 05:34:49
    INDEX 01 05:36:49
  TRACK 05 AUDIO
    INDEX 00 15:48:49
    INDEX 01 15:50:49
  TRACK 06 AUDIO
    INDEX 00 26:04:37
    INDEX 01 26:06:37
REM LEADOUT 36:18:41
